<svg xmlns="http://www.w3.org/2000/svg" version="1.1" viewBox="0 0 482 92"><g fill="none" stroke-linecap="butt" stroke-width="2"><path stroke="#609089" d="M 482.00 19.49 L 474.24 22.48 Q 473.80 22.65 473.38 22.45 C 468.20 20.10 459.12 20.59 453.76 21.01 C 447.04 21.53 442.59 23.83 439.48 29.60 Q 439.22 30.07 438.98 29.59 Q 435.37 22.26 427.27 21.23 C 420.85 20.41 408.79 19.69 403.20 23.72 Q 400.06 25.99 397.70 29.91 A 0.12 0.11 -41.9 0 1 397.50 29.90 C 392.24 19.19 378.78 19.99 368.67 21.14 Q 360.15 22.12 356.37 29.63 Q 356.10 30.15 355.84 29.63 Q 352.02 22.18 343.56 21.23 C 333.61 20.10 319.58 19.06 314.63 29.98 Q 314.43 30.42 314.23 29.98 Q 310.51 22.12 301.81 21.18 C 292.17 20.13 278.79 18.96 273.09 29.37 Q 272.82 29.88 272.54 29.38 C 267.97 21.32 261.58 20.95 252.33 20.70 C 243.67 20.47 235.70 21.31 231.47 29.90 Q 231.21 30.44 230.94 29.90 Q 227.11 22.12 218.57 21.15 C 208.73 20.03 194.64 19.12 189.67 29.98 Q 189.52 30.30 189.37 29.98 Q 185.91 22.22 177.26 21.21 C 167.06 20.01 153.83 19.12 148.24 29.64 Q 147.95 30.18 147.67 29.64 Q 143.66 22.02 134.94 21.19 C 124.92 20.23 112.14 19.05 106.51 29.50 Q 106.33 29.84 106.15 29.50 Q 102.05 21.89 92.23 21.04 C 82.47 20.20 69.89 19.32 65.00 30.03 Q 64.83 30.41 64.65 30.03 C 61.86 24.40 57.74 21.95 51.27 21.14 C 42.02 19.99 28.41 19.64 23.69 28.77 C 20.83 34.29 21.05 57.15 23.61 62.80 C 28.05 72.61 42.74 71.95 52.48 70.67 Q 61.34 69.50 64.65 61.49 Q 64.82 61.08 64.98 61.50 C 68.53 70.38 76.95 71.50 85.42 71.27 C 94.71 71.02 101.44 70.84 106.08 62.47 Q 106.31 62.05 106.55 62.47 C 112.08 72.58 122.73 71.49 133.22 70.95 Q 143.61 70.40 147.82 62.09 Q 147.97 61.80 148.11 62.09 C 152.59 71.19 161.44 71.39 170.36 71.20 C 178.80 71.02 185.19 70.26 189.40 62.36 A 0.28 0.28 0.0 0 1 189.90 62.37 Q 193.58 69.78 201.95 70.76 C 211.95 71.94 226.14 72.95 231.01 61.76 Q 231.17 61.39 231.34 61.76 C 235.33 70.59 243.73 71.46 252.32 71.28 C 260.31 71.10 268.87 70.77 272.60 62.19 Q 272.80 61.73 273.02 62.17 C 278.38 72.87 291.54 71.89 301.80 70.73 Q 310.80 69.71 314.32 61.73 Q 314.53 61.27 314.71 61.74 C 318.23 70.70 327.60 71.65 336.08 71.34 C 345.14 71.02 351.76 70.36 355.89 62.25 Q 356.08 61.88 356.27 62.25 C 361.57 72.55 371.96 71.35 382.74 70.95 Q 393.06 70.56 397.41 62.21 Q 397.65 61.75 397.28 61.40 Q 397.22 61.34 397.29 61.32 Q 397.44 61.27 397.57 61.21 Q 397.67 61.17 397.71 61.27 C 401.62 70.86 410.59 71.53 419.58 71.25 C 428.40 70.98 434.78 70.46 439.03 62.42 Q 439.09 62.31 439.16 62.42 Q 444.46 69.89 451.93 70.86 C 458.04 71.65 468.15 71.80 473.53 69.29 Q 483.17 64.78 482.00 50.90" vector-effect="non-scaling-stroke"/><path stroke="#609089" d="M 482.00 22.26 L 475.64 23.29 A 0.21 0.21 0.0 0 0 475.54 23.66 C 483.19 29.73 481.61 36.20 482.00 44.83" vector-effect="non-scaling-stroke"/><path stroke="#609089" d="M 52.55 41.35 Q 53.56 45.87 52.44 50.39 A 1.13 1.12 -83.1 0 1 51.35 51.25 Q 44.93 51.25 38.30 51.27 Q 38.05 51.27 37.85 51.38 Q 37.52 51.56 37.45 51.66 A 0.70 0.70 0.0 0 0 37.97 52.75 Q 44.54 53.32 51.06 52.78 C 56.24 52.36 54.97 44.61 54.41 40.85 Q 54.33 40.36 53.96 40.03 C 51.22 37.60 42.85 38.29 39.16 38.14 A 0.62 0.61 85.1 0 1 38.59 37.65 Q 37.73 33.50 38.47 29.25 A 1.77 1.77 0.0 0 1 40.20 27.78 Q 46.66 27.75 52.83 27.73 Q 53.24 27.73 53.47 27.54 Q 53.74 27.32 53.86 27.02 A 0.48 0.47 -77.4 0 0 53.45 26.37 Q 46.73 25.87 40.00 26.30 C 34.82 26.63 36.06 34.14 36.50 37.18 A 3.10 3.08 -2.0 0 0 39.34 39.82 C 42.75 40.05 48.93 39.30 51.95 40.62 Q 52.43 40.83 52.55 41.35" vector-effect="non-scaling-stroke"/><path stroke="#609089" d="M 92.53 29.12 L 92.82 39.46 A 0.70 0.70 0.0 0 1 91.96 40.16 Q 85.11 38.63 78.33 40.38 A 2.58 2.55 -1.4 0 0 76.46 42.32 Q 75.54 46.57 76.52 50.80 Q 76.65 51.33 77.08 51.67 C 80.22 54.09 90.05 52.93 94.07 52.67 Q 94.50 52.64 94.50 52.22 L 94.50 29.17 A 3.05 3.05 0.0 0 0 91.42 26.12 L 78.85 26.27 Q 78.29 26.27 78.34 26.83 Q 78.39 27.43 78.90 27.77 C 79.50 28.16 89.61 27.82 91.81 28.27 A 0.90 0.89 4.9 0 1 92.53 29.12" vector-effect="non-scaling-stroke"/><path stroke="#609089" d="M 161.91 38.50 L 177.24 38.50 A 0.74 0.74 0.0 0 0 177.98 37.77 C 178.04 35.20 178.69 28.95 176.55 27.08 C 174.49 25.28 166.49 25.99 163.74 26.20 C 160.86 26.42 159.54 27.98 159.52 30.76 Q 159.44 39.47 159.53 48.10 A 3.69 3.69 0.0 0 0 163.22 51.75 L 175.78 51.75 A 0.87 0.86 3.4 0 0 176.64 50.99 Q 176.72 50.20 175.75 50.18 Q 169.30 50.02 163.13 49.96 A 1.20 1.19 88.4 0 1 161.95 48.84 L 161.34 39.10 Q 161.30 38.50 161.91 38.50" vector-effect="non-scaling-stroke"/><path stroke="#609089" d="M 206.50 37.50 L 206.49 28.29 Q 206.49 27.79 206.99 27.78 C 210.58 27.72 214.78 27.42 218.30 27.87 Q 219.42 28.01 220.16 27.12 A 0.62 0.62 0.0 0 0 219.69 26.10 L 205.15 25.95 A 0.91 0.90 -0.0 0 0 204.24 26.85 L 204.30 52.40 Q 204.30 52.94 204.84 52.94 L 205.81 52.94 Q 206.50 52.94 206.50 52.25 L 206.49 40.56 Q 206.49 40.04 207.01 40.04 L 217.40 39.92 Q 218.01 39.91 218.21 39.34 Q 218.38 38.84 218.16 38.51 Q 217.93 38.18 217.23 38.15 Q 212.13 37.94 207.02 38.00 Q 206.50 38.01 206.50 37.50" vector-effect="non-scaling-stroke"/><path stroke="#609089" d="M 288.08 41.50 L 297.72 41.51 A 3.78 3.78 0.0 0 1 301.50 45.29 L 301.50 52.35 Q 301.50 52.88 302.03 52.92 L 302.88 52.98 Q 303.54 53.03 303.53 52.37 L 303.48 44.79 A 2.92 2.91 6.8 0 0 301.27 41.99 Q 298.74 41.37 296.74 39.90 A 0.87 0.86 -25.8 0 0 296.27 39.74 L 288.22 39.42 Q 287.72 39.40 287.71 38.90 L 287.67 28.43 Q 287.67 27.83 288.27 27.80 C 296.11 27.46 304.32 25.69 300.76 37.77 A 0.43 0.42 -5.1 0 0 301.36 38.26 C 305.09 36.45 303.00 28.76 301.25 26.64 Q 300.88 26.19 300.29 26.18 L 286.32 25.93 Q 285.74 25.92 285.74 26.50 L 285.73 52.39 Q 285.73 53.04 286.39 53.01 L 287.15 52.97 Q 287.79 52.93 287.79 52.29 L 287.67 41.92 Q 287.66 41.50 288.08 41.50" vector-effect="non-scaling-stroke"/><path stroke="#609089" d="M 335.52 26.09 C 330.62 26.21 325.93 24.92 325.92 32.00 Q 325.91 39.66 326.13 48.24 A 3.61 3.61 0.0 0 0 329.74 51.75 L 342.19 51.75 A 0.94 0.78 -39.7 0 0 342.50 50.05 L 329.73 49.97 A 1.34 1.33 -0.4 0 1 328.40 48.67 L 328.14 39.06 Q 328.12 38.50 328.68 38.50 L 343.78 38.50 Q 344.37 38.50 344.41 37.92 Q 344.68 34.60 344.55 31.22 C 344.32 25.41 340.34 25.98 335.52 26.09" vector-effect="non-scaling-stroke"/><path stroke="#609089" d="M 419.50 28.28 L 419.50 52.38 A 0.63 0.62 -0.0 0 0 420.13 53.00 L 421.00 53.00 Q 421.50 53.00 421.50 52.50 L 421.50 28.28 Q 421.50 27.81 421.97 27.80 L 429.69 27.64 A 0.50 0.50 0.0 0 0 429.99 26.75 Q 429.21 26.12 427.23 26.10 Q 419.54 26.04 411.87 26.30 Q 411.25 26.32 411.25 26.93 Q 411.25 27.10 411.24 27.29 Q 411.22 27.64 411.57 27.65 L 419.03 27.80 Q 419.50 27.81 419.50 28.28" vector-effect="non-scaling-stroke"/><path stroke="#609089" d="M 454.58 36.86 L 454.51 29.93 A 2.08 2.07 88.7 0 1 456.50 27.84 Q 462.88 27.61 468.93 27.86 Q 469.77 27.89 470.03 26.87 Q 470.14 26.43 469.69 26.39 Q 462.72 25.83 455.74 26.34 C 451.20 26.66 452.47 34.04 452.51 37.00 Q 452.52 37.51 452.83 37.93 C 455.24 41.16 464.12 39.87 468.13 40.54 Q 468.59 40.61 468.70 41.06 Q 469.93 45.84 468.64 50.62 Q 468.52 51.08 468.05 51.10 C 464.79 51.27 456.35 50.46 453.81 51.57 A 0.72 0.71 33.1 0 0 454.10 52.94 L 467.82 52.93 A 3.01 3.00 -83.1 0 0 470.74 50.63 C 474.14 36.69 465.84 37.94 456.07 38.28 A 1.44 1.43 -1.2 0 1 454.58 36.86" vector-effect="non-scaling-stroke"/><path stroke="#609089" d="M 126.52 50.00 L 120.75 26.85 Q 120.61 26.29 120.04 26.27 L 118.82 26.24 Q 118.15 26.22 118.33 26.88 Q 121.28 37.70 124.21 48.49 C 125.33 52.62 130.43 55.67 132.07 49.94 Q 135.35 38.48 138.47 26.94 Q 138.66 26.25 137.94 26.25 L 136.78 26.25 Q 136.32 26.25 136.20 26.70 L 130.28 50.00 A 1.94 1.94 0.0 0 1 126.52 50.00" vector-effect="non-scaling-stroke"/><path stroke="#609089" d="M 263.7464 30.2276 A 3.97 3.97 0.0 0 0 259.7833 26.2507 L 247.5233 26.2293 A 3.97 3.97 0.0 0 0 243.5464 30.1924 L 243.5136 48.9724 A 3.97 3.97 0.0 0 0 247.4767 52.9493 L 259.7367 52.9707 A 3.97 3.97 0.0 0 0 263.7136 49.0076 L 263.7464 30.2276" vector-effect="non-scaling-stroke"/><path stroke="#609089" d="M 385.52 41.17 Q 386.81 45.95 385.33 50.75 Q 385.19 51.21 384.71 51.22 L 371.04 51.27 A 0.69 0.69 0.0 0 0 370.73 52.58 C 372.85 53.65 380.44 53.00 383.08 52.87 C 385.68 52.74 387.34 52.36 387.62 49.37 Q 388.01 45.25 387.49 41.10 A 1.62 1.59 21.8 0 0 387.13 40.28 C 384.72 37.43 376.17 38.17 372.75 38.28 A 1.36 1.36 0.0 0 1 371.38 37.18 Q 370.61 33.10 371.47 29.08 A 1.41 1.41 0.0 0 1 372.66 27.98 Q 379.33 27.13 385.98 27.80 A 0.69 0.65 -29.0 0 0 386.39 26.54 C 383.91 25.51 375.56 26.24 372.49 26.24 C 368.06 26.24 369.21 35.18 369.59 37.74 Q 369.67 38.24 370.07 38.55 C 373.42 41.16 380.50 39.61 384.91 40.58 Q 385.39 40.69 385.52 41.17" vector-effect="non-scaling-stroke"/><path stroke="#609089" d="M 92.5539 42.7102 A 1.01 1.01 0.0 0 0 91.5368 41.7073 L 79.2771 41.7929 A 1.01 1.01 0.0 0 0 78.2742 42.8099 L 78.3261 50.2498 A 1.01 1.01 0.0 0 0 79.3432 51.2527 L 91.6029 51.1671 A 1.01 1.01 0.0 0 0 92.6058 50.1501 L 92.5539 42.7102" vector-effect="non-scaling-stroke"/><path stroke="#609089" d="M 162.12 37.00 L 175.18 37.00 A 0.61 0.61 0.0 0 0 175.79 36.39 L 175.79 30.39 A 2.65 2.49 90.0 0 0 173.30 27.74 L 164.00 27.74 A 2.65 2.49 -90.0 0 0 161.51 30.39 L 161.51 36.39 A 0.61 0.61 0.0 0 0 162.12 37.00" vector-effect="non-scaling-stroke"/><path stroke="#609089" d="M 342.4482 28.9774 A 1.10 1.10 0.0 0 0 341.3540 27.8716 L 329.2941 27.8085 A 1.10 1.10 0.0 0 0 328.1884 28.9027 L 328.1518 35.8826 A 1.10 1.10 0.0 0 0 329.2460 36.9884 L 341.3059 37.0515 A 1.10 1.10 0.0 0 0 342.4116 35.9573 L 342.4482 28.9774" vector-effect="non-scaling-stroke"/><path stroke="#609089" d="M 261.8072 30.0916 A 2.34 2.34 0.0 0 0 259.4590 27.7598 L 247.8391 27.8004 A 2.34 2.34 0.0 0 0 245.5073 30.1485 L 245.5728 48.9284 A 2.34 2.34 0.0 0 0 247.9210 51.2602 L 259.5409 51.2196 A 2.34 2.34 0.0 0 0 261.8727 48.8715 L 261.8072 30.0916" vector-effect="non-scaling-stroke"/></g><path fill="#beecee" d="M 0.00 0.00 L 482.00 0.00 L 482.00 19.49 L 474.24 22.48 Q 473.80 22.65 473.38 22.45 C 468.20 20.10 459.12 20.59 453.76 21.01 C 447.04 21.53 442.59 23.83 439.48 29.60 Q 439.22 30.07 438.98 29.59 Q 435.37 22.26 427.27 21.23 C 420.85 20.41 408.79 19.69 403.20 23.72 Q 400.06 25.99 397.70 29.91 A 0.12 0.11 -41.9 0 1 397.50 29.90 C 392.24 19.19 378.78 19.99 368.67 21.14 Q 360.15 22.12 356.37 29.63 Q 356.10 30.15 355.84 29.63 Q 352.02 22.18 343.56 21.23 C 333.61 20.10 319.58 19.06 314.63 29.98 Q 314.43 30.42 314.23 29.98 Q 310.51 22.12 301.81 21.18 C 292.17 20.13 278.79 18.96 273.09 29.37 Q 272.82 29.88 272.54 29.38 C 267.97 21.32 261.58 20.95 252.33 20.70 C 243.67 20.47 235.70 21.31 231.47 29.90 Q 231.21 30.44 230.94 29.90 Q 227.11 22.12 218.57 21.15 C 208.73 20.03 194.64 19.12 189.67 29.98 Q 189.52 30.30 189.37 29.98 Q 185.91 22.22 177.26 21.21 C 167.06 20.01 153.83 19.12 148.24 29.64 Q 147.95 30.18 147.67 29.64 Q 143.66 22.02 134.94 21.19 C 124.92 20.23 112.14 19.05 106.51 29.50 Q 106.33 29.84 106.15 29.50 Q 102.05 21.89 92.23 21.04 C 82.47 20.20 69.89 19.32 65.00 30.03 Q 64.83 30.41 64.65 30.03 C 61.86 24.40 57.74 21.95 51.27 21.14 C 42.02 19.99 28.41 19.64 23.69 28.77 C 20.83 34.29 21.05 57.15 23.61 62.80 C 28.05 72.61 42.74 71.95 52.48 70.67 Q 61.34 69.50 64.65 61.49 Q 64.82 61.08 64.98 61.50 C 68.53 70.38 76.95 71.50 85.42 71.27 C 94.71 71.02 101.44 70.84 106.08 62.47 Q 106.31 62.05 106.55 62.47 C 112.08 72.58 122.73 71.49 133.22 70.95 Q 143.61 70.40 147.82 62.09 Q 147.97 61.80 148.11 62.09 C 152.59 71.19 161.44 71.39 170.36 71.20 C 178.80 71.02 185.19 70.26 189.40 62.36 A 0.28 0.28 0.0 0 1 189.90 62.37 Q 193.58 69.78 201.95 70.76 C 211.95 71.94 226.14 72.95 231.01 61.76 Q 231.17 61.39 231.34 61.76 C 235.33 70.59 243.73 71.46 252.32 71.28 C 260.31 71.10 268.87 70.77 272.60 62.19 Q 272.80 61.73 273.02 62.17 C 278.38 72.87 291.54 71.89 301.80 70.73 Q 310.80 69.71 314.32 61.73 Q 314.53 61.27 314.71 61.74 C 318.23 70.70 327.60 71.65 336.08 71.34 C 345.14 71.02 351.76 70.36 355.89 62.25 Q 356.08 61.88 356.27 62.25 C 361.57 72.55 371.96 71.35 382.74 70.95 Q 393.06 70.56 397.41 62.21 Q 397.65 61.75 397.28 61.40 Q 397.22 61.34 397.29 61.32 Q 397.44 61.27 397.57 61.21 Q 397.67 61.17 397.71 61.27 C 401.62 70.86 410.59 71.53 419.58 71.25 C 428.40 70.98 434.78 70.46 439.03 62.42 Q 439.09 62.31 439.16 62.42 Q 444.46 69.89 451.93 70.86 C 458.04 71.65 468.15 71.80 473.53 69.29 Q 483.17 64.78 482.00 50.90 L 482.00 92.00 L 0.00 92.00 L 0.00 0.00 Z"/><path fill="#023323" d="M 482.00 19.49 L 482.00 22.26 L 475.64 23.29 A 0.21 0.21 0.0 0 0 475.54 23.66 C 483.19 29.73 481.61 36.20 482.00 44.83 L 482.00 50.90 Q 483.17 64.78 473.53 69.29 C 468.15 71.80 458.04 71.65 451.93 70.86 Q 444.46 69.89 439.16 62.42 Q 439.09 62.31 439.03 62.42 C 434.78 70.46 428.40 70.98 419.58 71.25 C 410.59 71.53 401.62 70.86 397.71 61.27 Q 397.67 61.17 397.57 61.21 Q 397.44 61.27 397.29 61.32 Q 397.22 61.34 397.28 61.40 Q 397.65 61.75 397.41 62.21 Q 393.06 70.56 382.74 70.95 C 371.96 71.35 361.57 72.55 356.27 62.25 Q 356.08 61.88 355.89 62.25 C 351.76 70.36 345.14 71.02 336.08 71.34 C 327.60 71.65 318.23 70.70 314.71 61.74 Q 314.53 61.27 314.32 61.73 Q 310.80 69.71 301.80 70.73 C 291.54 71.89 278.38 72.87 273.02 62.17 Q 272.80 61.73 272.60 62.19 C 268.87 70.77 260.31 71.10 252.32 71.28 C 243.73 71.46 235.33 70.59 231.34 61.76 Q 231.17 61.39 231.01 61.76 C 226.14 72.95 211.95 71.94 201.95 70.76 Q 193.58 69.78 189.90 62.37 A 0.28 0.28 0.0 0 0 189.40 62.36 C 185.19 70.26 178.80 71.02 170.36 71.20 C 161.44 71.39 152.59 71.19 148.11 62.09 Q 147.97 61.80 147.82 62.09 Q 143.61 70.40 133.22 70.95 C 122.73 71.49 112.08 72.58 106.55 62.47 Q 106.31 62.05 106.08 62.47 C 101.44 70.84 94.71 71.02 85.42 71.27 C 76.95 71.50 68.53 70.38 64.98 61.50 Q 64.82 61.08 64.65 61.49 Q 61.34 69.50 52.48 70.67 C 42.74 71.95 28.05 72.61 23.61 62.80 C 21.05 57.15 20.83 34.29 23.69 28.77 C 28.41 19.64 42.02 19.99 51.27 21.14 C 57.74 21.95 61.86 24.40 64.65 30.03 Q 64.83 30.41 65.00 30.03 C 69.89 19.32 82.47 20.20 92.23 21.04 Q 102.05 21.89 106.15 29.50 Q 106.33 29.84 106.51 29.50 C 112.14 19.05 124.92 20.23 134.94 21.19 Q 143.66 22.02 147.67 29.64 Q 147.95 30.18 148.24 29.64 C 153.83 19.12 167.06 20.01 177.26 21.21 Q 185.91 22.22 189.37 29.98 Q 189.52 30.30 189.67 29.98 C 194.64 19.12 208.73 20.03 218.57 21.15 Q 227.11 22.12 230.94 29.90 Q 231.21 30.44 231.47 29.90 C 235.70 21.31 243.67 20.47 252.33 20.70 C 261.58 20.95 267.97 21.32 272.54 29.38 Q 272.82 29.88 273.09 29.37 C 278.79 18.96 292.17 20.13 301.81 21.18 Q 310.51 22.12 314.23 29.98 Q 314.43 30.42 314.63 29.98 C 319.58 19.06 333.61 20.10 343.56 21.23 Q 352.02 22.18 355.84 29.63 Q 356.10 30.15 356.37 29.63 Q 360.15 22.12 368.67 21.14 C 378.78 19.99 392.24 19.19 397.50 29.90 A 0.12 0.11 -41.9 0 0 397.70 29.91 Q 400.06 25.99 403.20 23.72 C 408.79 19.69 420.85 20.41 427.27 21.23 Q 435.37 22.26 438.98 29.59 Q 439.22 30.07 439.48 29.60 C 442.59 23.83 447.04 21.53 453.76 21.01 C 459.12 20.59 468.20 20.10 473.38 22.45 Q 473.80 22.65 474.24 22.48 L 482.00 19.49 Z M 52.55 41.35 Q 53.56 45.87 52.44 50.39 A 1.13 1.12 -83.1 0 1 51.35 51.25 Q 44.93 51.25 38.30 51.27 Q 38.05 51.27 37.85 51.38 Q 37.52 51.56 37.45 51.66 A 0.70 0.70 0.0 0 0 37.97 52.75 Q 44.54 53.32 51.06 52.78 C 56.24 52.36 54.97 44.61 54.41 40.85 Q 54.33 40.36 53.96 40.03 C 51.22 37.60 42.85 38.29 39.16 38.14 A 0.62 0.61 85.1 0 1 38.59 37.65 Q 37.73 33.50 38.47 29.25 A 1.77 1.77 0.0 0 1 40.20 27.78 Q 46.66 27.75 52.83 27.73 Q 53.24 27.73 53.47 27.54 Q 53.74 27.32 53.86 27.02 A 0.48 0.47 -77.4 0 0 53.45 26.37 Q 46.73 25.87 40.00 26.30 C 34.82 26.63 36.06 34.14 36.50 37.18 A 3.10 3.08 -2.0 0 0 39.34 39.82 C 42.75 40.05 48.93 39.30 51.95 40.62 Q 52.43 40.83 52.55 41.35 Z M 92.53 29.12 L 92.82 39.46 A 0.70 0.70 0.0 0 1 91.96 40.16 Q 85.11 38.63 78.33 40.38 A 2.58 2.55 -1.4 0 0 76.46 42.32 Q 75.54 46.57 76.52 50.80 Q 76.65 51.33 77.08 51.67 C 80.22 54.09 90.05 52.93 94.07 52.67 Q 94.50 52.64 94.50 52.22 L 94.50 29.17 A 3.05 3.05 0.0 0 0 91.42 26.12 L 78.85 26.27 Q 78.29 26.27 78.34 26.83 Q 78.39 27.43 78.90 27.77 C 79.50 28.16 89.61 27.82 91.81 28.27 A 0.90 0.89 4.9 0 1 92.53 29.12 Z M 161.91 38.50 L 177.24 38.50 A 0.74 0.74 0.0 0 0 177.98 37.77 C 178.04 35.20 178.69 28.95 176.55 27.08 C 174.49 25.28 166.49 25.99 163.74 26.20 C 160.86 26.42 159.54 27.98 159.52 30.76 Q 159.44 39.47 159.53 48.10 A 3.69 3.69 0.0 0 0 163.22 51.75 L 175.78 51.75 A 0.87 0.86 3.4 0 0 176.64 50.99 Q 176.72 50.20 175.75 50.18 Q 169.30 50.02 163.13 49.96 A 1.20 1.19 88.4 0 1 161.95 48.84 L 161.34 39.10 Q 161.30 38.50 161.91 38.50 Z M 206.50 37.50 L 206.49 28.29 Q 206.49 27.79 206.99 27.78 C 210.58 27.72 214.78 27.42 218.30 27.87 Q 219.42 28.01 220.16 27.12 A 0.62 0.62 0.0 0 0 219.69 26.10 L 205.15 25.95 A 0.91 0.90 -0.0 0 0 204.24 26.85 L 204.30 52.40 Q 204.30 52.94 204.84 52.94 L 205.81 52.94 Q 206.50 52.94 206.50 52.25 L 206.49 40.56 Q 206.49 40.04 207.01 40.04 L 217.40 39.92 Q 218.01 39.91 218.21 39.34 Q 218.38 38.84 218.16 38.51 Q 217.93 38.18 217.23 38.15 Q 212.13 37.94 207.02 38.00 Q 206.50 38.01 206.50 37.50 Z M 288.08 41.50 L 297.72 41.51 A 3.78 3.78 0.0 0 1 301.50 45.29 L 301.50 52.35 Q 301.50 52.88 302.03 52.92 L 302.88 52.98 Q 303.54 53.03 303.53 52.37 L 303.48 44.79 A 2.92 2.91 6.8 0 0 301.27 41.99 Q 298.74 41.37 296.74 39.90 A 0.87 0.86 -25.8 0 0 296.27 39.74 L 288.22 39.42 Q 287.72 39.40 287.71 38.90 L 287.67 28.43 Q 287.67 27.83 288.27 27.80 C 296.11 27.46 304.32 25.69 300.76 37.77 A 0.43 0.42 -5.1 0 0 301.36 38.26 C 305.09 36.45 303.00 28.76 301.25 26.64 Q 300.88 26.19 300.29 26.18 L 286.32 25.93 Q 285.74 25.92 285.74 26.50 L 285.73 52.39 Q 285.73 53.04 286.39 53.01 L 287.15 52.97 Q 287.79 52.93 287.79 52.29 L 287.67 41.92 Q 287.66 41.50 288.08 41.50 Z M 335.52 26.09 C 330.62 26.21 325.93 24.92 325.92 32.00 Q 325.91 39.66 326.13 48.24 A 3.61 3.61 0.0 0 0 329.74 51.75 L 342.19 51.75 A 0.94 0.78 -39.7 0 0 342.50 50.05 L 329.73 49.97 A 1.34 1.33 -0.4 0 1 328.40 48.67 L 328.14 39.06 Q 328.12 38.50 328.68 38.50 L 343.78 38.50 Q 344.37 38.50 344.41 37.92 Q 344.68 34.60 344.55 31.22 C 344.32 25.41 340.34 25.98 335.52 26.09 Z M 419.50 28.28 L 419.50 52.38 A 0.63 0.62 -0.0 0 0 420.13 53.00 L 421.00 53.00 Q 421.50 53.00 421.50 52.50 L 421.50 28.28 Q 421.50 27.81 421.97 27.80 L 429.69 27.64 A 0.50 0.50 0.0 0 0 429.99 26.75 Q 429.21 26.12 427.23 26.10 Q 419.54 26.04 411.87 26.30 Q 411.25 26.32 411.25 26.93 Q 411.25 27.10 411.24 27.29 Q 411.22 27.64 411.57 27.65 L 419.03 27.80 Q 419.50 27.81 419.50 28.28 Z M 454.58 36.86 L 454.51 29.93 A 2.08 2.07 88.7 0 1 456.50 27.84 Q 462.88 27.61 468.93 27.86 Q 469.77 27.89 470.03 26.87 Q 470.14 26.43 469.69 26.39 Q 462.72 25.83 455.74 26.34 C 451.20 26.66 452.47 34.04 452.51 37.00 Q 452.52 37.51 452.83 37.93 C 455.24 41.16 464.12 39.87 468.13 40.54 Q 468.59 40.61 468.70 41.06 Q 469.93 45.84 468.64 50.62 Q 468.52 51.08 468.05 51.10 C 464.79 51.27 456.35 50.46 453.81 51.57 A 0.72 0.71 33.1 0 0 454.10 52.94 L 467.82 52.93 A 3.01 3.00 -83.1 0 0 470.74 50.63 C 474.14 36.69 465.84 37.94 456.07 38.28 A 1.44 1.43 -1.2 0 1 454.58 36.86 Z M 126.52 50.00 L 120.75 26.85 Q 120.61 26.29 120.04 26.27 L 118.82 26.24 Q 118.15 26.22 118.33 26.88 Q 121.28 37.70 124.21 48.49 C 125.33 52.62 130.43 55.67 132.07 49.94 Q 135.35 38.48 138.47 26.94 Q 138.66 26.25 137.94 26.25 L 136.78 26.25 Q 136.32 26.25 136.20 26.70 L 130.28 50.00 A 1.94 1.94 0.0 0 1 126.52 50.00 Z M 263.7464 30.2276 A 3.97 3.97 0.0 0 0 259.7833 26.2507 L 247.5233 26.2293 A 3.97 3.97 0.0 0 0 243.5464 30.1924 L 243.5136 48.9724 A 3.97 3.97 0.0 0 0 247.4767 52.9493 L 259.7367 52.9707 A 3.97 3.97 0.0 0 0 263.7136 49.0076 L 263.7464 30.2276 Z M 385.52 41.17 Q 386.81 45.95 385.33 50.75 Q 385.19 51.21 384.71 51.22 L 371.04 51.27 A 0.69 0.69 0.0 0 0 370.73 52.58 C 372.85 53.65 380.44 53.00 383.08 52.87 C 385.68 52.74 387.34 52.36 387.62 49.37 Q 388.01 45.25 387.49 41.10 A 1.62 1.59 21.8 0 0 387.13 40.28 C 384.72 37.43 376.17 38.17 372.75 38.28 A 1.36 1.36 0.0 0 1 371.38 37.18 Q 370.61 33.10 371.47 29.08 A 1.41 1.41 0.0 0 1 372.66 27.98 Q 379.33 27.13 385.98 27.80 A 0.69 0.65 -29.0 0 0 386.39 26.54 C 383.91 25.51 375.56 26.24 372.49 26.24 C 368.06 26.24 369.21 35.18 369.59 37.74 Q 369.67 38.24 370.07 38.55 C 373.42 41.16 380.50 39.61 384.91 40.58 Q 385.39 40.69 385.52 41.17 Z"/><path fill="#beecee" d="M 482.00 22.26 L 482.00 44.83 C 481.61 36.20 483.19 29.73 475.54 23.66 A 0.21 0.21 0.0 0 1 475.64 23.29 L 482.00 22.26 Z"/><path fill="#beecee" d="M 51.95 40.62 C 48.93 39.30 42.75 40.05 39.34 39.82 A 3.10 3.08 -2.0 0 1 36.50 37.18 C 36.06 34.14 34.82 26.63 40.00 26.30 Q 46.73 25.87 53.45 26.37 A 0.48 0.47 -77.4 0 1 53.86 27.02 Q 53.74 27.32 53.47 27.54 Q 53.24 27.73 52.83 27.73 Q 46.66 27.75 40.20 27.78 A 1.77 1.77 0.0 0 0 38.47 29.25 Q 37.73 33.50 38.59 37.65 A 0.62 0.61 85.1 0 0 39.16 38.14 C 42.85 38.29 51.22 37.60 53.96 40.03 Q 54.33 40.36 54.41 40.85 C 54.97 44.61 56.24 52.36 51.06 52.78 Q 44.54 53.32 37.97 52.75 A 0.70 0.70 0.0 0 1 37.45 51.66 Q 37.52 51.56 37.85 51.38 Q 38.05 51.27 38.30 51.27 Q 44.93 51.25 51.35 51.25 A 1.13 1.12 -83.1 0 0 52.44 50.39 Q 53.56 45.87 52.55 41.35 Q 52.43 40.83 51.95 40.62 Z"/><path fill="#beecee" d="M 91.81 28.27 C 89.61 27.82 79.50 28.16 78.90 27.77 Q 78.39 27.43 78.34 26.83 Q 78.29 26.27 78.85 26.27 L 91.42 26.12 A 3.05 3.05 0.0 0 1 94.50 29.17 L 94.50 52.22 Q 94.50 52.64 94.07 52.67 C 90.05 52.93 80.22 54.09 77.08 51.67 Q 76.65 51.33 76.52 50.80 Q 75.54 46.57 76.46 42.32 A 2.58 2.55 -1.4 0 1 78.33 40.38 Q 85.11 38.63 91.96 40.16 A 0.70 0.70 0.0 0 0 92.82 39.46 L 92.53 29.12 A 0.90 0.89 4.9 0 0 91.81 28.27 Z M 92.5539 42.7102 A 1.01 1.01 0.0 0 0 91.5368 41.7073 L 79.2771 41.7929 A 1.01 1.01 0.0 0 0 78.2742 42.8099 L 78.3261 50.2498 A 1.01 1.01 0.0 0 0 79.3432 51.2527 L 91.6029 51.1671 A 1.01 1.01 0.0 0 0 92.6058 50.1501 L 92.5539 42.7102 Z"/><path fill="#beecee" d="M 161.34 39.10 L 161.95 48.84 A 1.20 1.19 88.4 0 0 163.13 49.96 Q 169.30 50.02 175.75 50.18 Q 176.72 50.20 176.64 50.99 A 0.87 0.86 3.4 0 1 175.78 51.75 L 163.22 51.75 A 3.69 3.69 0.0 0 1 159.53 48.10 Q 159.44 39.47 159.52 30.76 C 159.54 27.98 160.86 26.42 163.74 26.20 C 166.49 25.99 174.49 25.28 176.55 27.08 C 178.69 28.95 178.04 35.20 177.98 37.77 A 0.74 0.74 0.0 0 1 177.24 38.50 L 161.91 38.50 Q 161.30 38.50 161.34 39.10 Z M 162.12 37.00 L 175.18 37.00 A 0.61 0.61 0.0 0 0 175.79 36.39 L 175.79 30.39 A 2.65 2.49 90.0 0 0 173.30 27.74 L 164.00 27.74 A 2.65 2.49 -90.0 0 0 161.51 30.39 L 161.51 36.39 A 0.61 0.61 0.0 0 0 162.12 37.00 Z"/><path fill="#beecee" d="M 207.02 38.00 Q 212.13 37.94 217.23 38.15 Q 217.93 38.18 218.16 38.51 Q 218.38 38.84 218.21 39.34 Q 218.01 39.91 217.40 39.92 L 207.01 40.04 Q 206.49 40.04 206.49 40.56 L 206.50 52.25 Q 206.50 52.94 205.81 52.94 L 204.84 52.94 Q 204.30 52.94 204.30 52.40 L 204.24 26.85 A 0.91 0.90 -0.0 0 1 205.15 25.95 L 219.69 26.10 A 0.62 0.62 0.0 0 1 220.16 27.12 Q 219.42 28.01 218.30 27.87 C 214.78 27.42 210.58 27.72 206.99 27.78 Q 206.49 27.79 206.49 28.29 L 206.50 37.50 Q 206.50 38.01 207.02 38.00 Z"/><path fill="#beecee" d="M 287.67 41.92 L 287.79 52.29 Q 287.79 52.93 287.15 52.97 L 286.39 53.01 Q 285.73 53.04 285.73 52.39 L 285.74 26.50 Q 285.74 25.92 286.32 25.93 L 300.29 26.18 Q 300.88 26.19 301.25 26.64 C 303.00 28.76 305.09 36.45 301.36 38.26 A 0.43 0.42 -5.1 0 1 300.76 37.77 C 304.32 25.69 296.11 27.46 288.27 27.80 Q 287.67 27.83 287.67 28.43 L 287.71 38.90 Q 287.72 39.40 288.22 39.42 L 296.27 39.74 A 0.87 0.86 -25.8 0 1 296.74 39.90 Q 298.74 41.37 301.27 41.99 A 2.92 2.91 6.8 0 1 303.48 44.79 L 303.53 52.37 Q 303.54 53.03 302.88 52.98 L 302.03 52.92 Q 301.50 52.88 301.50 52.35 L 301.50 45.29 A 3.78 3.78 0.0 0 0 297.72 41.51 L 288.08 41.50 Q 287.66 41.50 287.67 41.92 Z"/><path fill="#beecee" d="M 325.92 32.00 C 325.93 24.92 330.62 26.21 335.52 26.09 C 340.34 25.98 344.32 25.41 344.55 31.22 Q 344.68 34.60 344.41 37.92 Q 344.37 38.50 343.78 38.50 L 328.68 38.50 Q 328.12 38.50 328.14 39.06 L 328.40 48.67 A 1.34 1.33 -0.4 0 0 329.73 49.97 L 342.50 50.05 A 0.94 0.78 -39.7 0 1 342.19 51.75 L 329.74 51.75 A 3.61 3.61 0.0 0 1 326.13 48.24 Q 325.91 39.66 325.92 32.00 Z M 342.4482 28.9774 A 1.10 1.10 0.0 0 0 341.3540 27.8716 L 329.2941 27.8085 A 1.10 1.10 0.0 0 0 328.1884 28.9027 L 328.1518 35.8826 A 1.10 1.10 0.0 0 0 329.2460 36.9884 L 341.3059 37.0515 A 1.10 1.10 0.0 0 0 342.4116 35.9573 L 342.4482 28.9774 Z"/><path fill="#beecee" d="M 419.03 27.80 L 411.57 27.65 Q 411.22 27.64 411.24 27.29 Q 411.25 27.10 411.25 26.93 Q 411.25 26.32 411.87 26.30 Q 419.54 26.04 427.23 26.10 Q 429.21 26.12 429.99 26.75 A 0.50 0.50 0.0 0 1 429.69 27.64 L 421.97 27.80 Q 421.50 27.81 421.50 28.28 L 421.50 52.50 Q 421.50 53.00 421.00 53.00 L 420.13 53.00 A 0.63 0.62 -0.0 0 1 419.50 52.38 L 419.50 28.28 Q 419.50 27.81 419.03 27.80 Z"/><path fill="#beecee" d="M 454.58 36.86 A 1.44 1.43 -1.2 0 0 456.07 38.28 C 465.84 37.94 474.14 36.69 470.74 50.63 A 3.01 3.00 -83.1 0 1 467.82 52.93 L 454.10 52.94 A 0.72 0.71 33.1 0 1 453.81 51.57 C 456.35 50.46 464.79 51.27 468.05 51.10 Q 468.52 51.08 468.64 50.62 Q 469.93 45.84 468.70 41.06 Q 468.59 40.61 468.13 40.54 C 464.12 39.87 455.24 41.16 452.83 37.93 Q 452.52 37.51 452.51 37.00 C 452.47 34.04 451.20 26.66 455.74 26.34 Q 462.72 25.83 469.69 26.39 Q 470.14 26.43 470.03 26.87 Q 469.77 27.89 468.93 27.86 Q 462.88 27.61 456.50 27.84 A 2.08 2.07 88.7 0 0 454.51 29.93 L 454.58 36.86 Z"/><path fill="#beecee" d="M 126.52 50.00 A 1.94 1.94 0.0 0 0 130.28 50.00 L 136.20 26.70 Q 136.32 26.25 136.78 26.25 L 137.94 26.25 Q 138.66 26.25 138.47 26.94 Q 135.35 38.48 132.07 49.94 C 130.43 55.67 125.33 52.62 124.21 48.49 Q 121.28 37.70 118.33 26.88 Q 118.15 26.22 118.82 26.24 L 120.04 26.27 Q 120.61 26.29 120.75 26.85 L 126.52 50.00 Z"/><path fill="#beecee" d="M 263.7136 49.0076 A 3.97 3.97 0.0 0 1 259.7367 52.9707 L 247.4767 52.9493 A 3.97 3.97 0.0 0 1 243.5136 48.9724 L 243.5464 30.1924 A 3.97 3.97 0.0 0 1 247.5233 26.2293 L 259.7833 26.2507 A 3.97 3.97 0.0 0 1 263.7464 30.2276 L 263.7136 49.0076 Z M 261.8072 30.0916 A 2.34 2.34 0.0 0 0 259.4590 27.7598 L 247.8391 27.8004 A 2.34 2.34 0.0 0 0 245.5073 30.1485 L 245.5728 48.9284 A 2.34 2.34 0.0 0 0 247.9210 51.2602 L 259.5409 51.2196 A 2.34 2.34 0.0 0 0 261.8727 48.8715 L 261.8072 30.0916 Z"/><path fill="#beecee" d="M 384.91 40.58 C 380.50 39.61 373.42 41.16 370.07 38.55 Q 369.67 38.24 369.59 37.74 C 369.21 35.18 368.06 26.24 372.49 26.24 C 375.56 26.24 383.91 25.51 386.39 26.54 A 0.69 0.65 -29.0 0 1 385.98 27.80 Q 379.33 27.13 372.66 27.98 A 1.41 1.41 0.0 0 0 371.47 29.08 Q 370.61 33.10 371.38 37.18 A 1.36 1.36 0.0 0 0 372.75 38.28 C 376.17 38.17 384.72 37.43 387.13 40.28 A 1.62 1.59 21.8 0 1 387.49 41.10 Q 388.01 45.25 387.62 49.37 C 387.34 52.36 385.68 52.74 383.08 52.87 C 380.44 53.00 372.85 53.65 370.73 52.58 A 0.69 0.69 0.0 0 1 371.04 51.27 L 384.71 51.22 Q 385.19 51.21 385.33 50.75 Q 386.81 45.95 385.52 41.17 Q 385.39 40.69 384.91 40.58 Z"/><path fill="#023323" d="M 162.12 37.00 A 0.61 0.61 0.0 0 1 161.51 36.39 L 161.51 30.39 A 2.65 2.49 -90.0 0 1 164.00 27.74 L 173.30 27.74 A 2.65 2.49 -90.0 0 1 175.79 30.39 L 175.79 36.39 A 0.61 0.61 0.0 0 1 175.18 37.00 L 162.12 37.00 Z"/><rect width="16.3" height="23.46" x="-8.15" y="-11.73" fill="#023323" rx="2.34" transform="translate(253.69,39.51) rotate(-0.2)"/><rect width="14.26" height="9.18" x="-7.13" y="-4.59" fill="#023323" rx="1.1" transform="translate(335.30,32.43) rotate(0.3)"/><rect width="14.28" height="9.46" x="-7.14" y="-4.73" fill="#023323" rx="1.01" transform="translate(85.44,46.48) rotate(-0.4)"/></svg>